<?xml version="1.0" encoding="utf-8"?>
<!-- Generator: Adobe Illustrator 19.0.0, SVG Export Plug-In . SVG Version: 6.00 Build 0)  -->
<svg version="1.1" id="Layer_1" xmlns="http://www.w3.org/2000/svg" xmlns:xlink="http://www.w3.org/1999/xlink" x="0px" y="0px"
	 viewBox="-273 365 64 64" style="enable-background:new -273 365 64 64;" xml:space="preserve">
<style type="text/css">
	.st0{fill:#52B354;}
	.st1{fill:#FFFFFF;}
	.st2{fill:#D3D5DD;}
	.st3{fill:#F94646;}
</style>
<g>
	<g>
		<g>
			<path class="st0" d="M-241,365c17.7,0,32,14.3,32,32s-14.3,32-32,32s-32-14.3-32-32S-258.7,365-241,365z"/>
		</g>
	</g>
	<g>
		<g>
			<path class="st1" d="M-233.7,380.5l6.1,5.8v26.1c0,0.6-0.5,1-1.1,1h-24.7c-0.6,0-1.1-0.4-1.1-1v-30.9c0-0.6,0.5-1,1.1-1H-233.7z"
				/>
		</g>
	</g>
	<g>
		<g>
			<polygon class="st2" points="-227.5,386.4 -233.7,386.4 -233.7,380.5 			"/>
		</g>
	</g>
	<g>
		<g>
			<path class="st3" d="M-233.7,394.4c1.1,0.7,1,1.8,0.8,2.2c-0.1,0.4-0.7,1-1.8,1c-0.2,0-0.5,0-0.8-0.1c-0.9-0.2-1.6-0.7-3.3-2.5
				c-0.8,0.1-1.7,0.2-2.6,0.4c-0.7,0.1-1.4,0.3-2,0.5c-2,4-3,4.4-3.4,4.6c-0.3,0.1-0.5,0.1-0.7,0.1c-0.8,0-1.3-0.6-1.5-0.9
				c-0.2-0.4-0.6-1.3,0.7-2.7c0.5-0.5,1.5-1.5,3.9-2.3c0.3-0.7,0.7-1.3,1-2.1c0.4-0.8,0.7-1.6,0.9-2.2c-1-1.6-1.1-2.8-1.1-4.1
				c0-1.6,1.1-2.1,1.8-2.1c0.4,0,1.7,0.4,1.8,2.5c0,0.8-0.1,1.7-0.8,3.6c0.5,0.7,1.1,1.5,2,2.5c0.3,0.3,0.5,0.6,0.7,0.8
				c0.2,0,0.4,0,0.6,0C-235.8,393.6-234.5,393.9-233.7,394.4z M-234.3,396.1c0.1-0.2-0.1-0.4-0.2-0.4c-0.1-0.1-0.8-0.4-2.2-0.5
				c0.9,0.8,1.2,1,1.6,1c0.1,0,0.3,0.1,0.4,0.1C-234.4,396.3-234.3,396.2-234.3,396.1z M-240,393.8L-240,393.8L-240,393.8
				c-0.6-0.7-1-1.3-1.5-1.8v0.1l0,0c-0.1,0.4-0.4,0.8-0.5,1.3c-0.1,0.3-0.3,0.6-0.4,0.8h0.1l-0.1,0.1c0.3-0.1,0.5-0.1,0.8-0.1
				C-241.1,394-240.6,393.9-240,393.8z M-241.8,388.6c0.3-0.9,0.3-1.4,0.3-1.8c0-0.7-0.2-1-0.4-1c-0.1,0.1-0.2,0.3-0.2,0.7
				C-242.2,387.1-242.1,387.7-241.8,388.6z M-247.4,399.2c0.1,0,0.6-0.3,1.8-2.3c-1,0.5-1.4,1-1.7,1.3c-0.4,0.4-0.4,0.7-0.4,0.9
				l0.1,0.1h-0.1c0,0,0.1,0.1,0.1,0.1C-247.5,399.2-247.4,399.2-247.4,399.2z"/>
		</g>
	</g>
	<g>
		<g>
			<polygon points="-233.5,403.7 -233.5,404.9 -236.3,404.9 -236.3,406.1 -234.2,406.1 -234.2,407.2 -236.3,407.2 -236.3,409.7 
				-237.6,409.7 -237.6,403.7 			"/>
		</g>
	</g>
	<g>
		<g>
			<path d="M-238.5,405.5c0.1,0.4,0.1,0.7,0.1,1.2c0,0.4-0.1,0.9-0.1,1.3c-0.1,0.4-0.3,0.7-0.5,1c-0.5,0.5-1.2,0.7-2.1,0.7h-2.2v-6
				h2c0.5,0,0.9,0.1,1.3,0.2c0.4,0.1,0.7,0.4,0.9,0.6C-238.8,404.9-238.6,405.2-238.5,405.5z M-239.7,407.5c0.1-0.2,0.1-0.4,0.1-0.7
				c0-0.3,0-0.6-0.1-0.8c-0.1-0.2-0.1-0.4-0.3-0.6c-0.2-0.3-0.7-0.4-1.1-0.4h-0.7v3.8h0.7c0.3,0,0.6-0.1,0.7-0.1
				c0.2-0.1,0.4-0.2,0.4-0.4C-239.8,407.9-239.7,407.7-239.7,407.5z"/>
		</g>
	</g>
	<g>
		<g>
			<path d="M-244.1,404.7c0.1,0.2,0.1,0.5,0.1,0.8c0,0.6-0.2,1-0.6,1.3s-1,0.4-1.6,0.4h-1v2.4h-1.3v-6h2.3c0.3,0,0.6,0,0.9,0.1
				c0.3,0.1,0.5,0.1,0.7,0.3C-244.4,404.3-244.2,404.5-244.1,404.7z M-245.3,405.6c0-0.1,0-0.2-0.1-0.4c-0.1-0.1-0.1-0.1-0.1-0.2
				c-0.1-0.1-0.4-0.1-0.8-0.1h-0.8v1.4h0.8c0.1,0,0.3,0,0.4,0c0.1,0,0.2-0.1,0.3-0.1c0.1-0.1,0.1-0.1,0.2-0.2
				C-245.3,405.8-245.3,405.8-245.3,405.6z"/>
		</g>
	</g>
</g>
</svg>
